<?xml version="1.0" encoding="utf-8"?>
<!-- Generator: Adobe Illustrator 25.2.3, SVG Export Plug-In . SVG Version: 6.00 Build 0)  -->
<svg version="1.1" id="Layer_2_1_" xmlns="http://www.w3.org/2000/svg" xmlns:xlink="http://www.w3.org/1999/xlink" x="0px" y="0px"
	 viewBox="0 0 24 24" style="enable-background:new 0 0 24 24;" xml:space="preserve">
<style type="text/css">
	.st0{fill:#EEEEEE;}
</style>
<path class="st0" d="M9,2.4C8.3,3.2,7.7,4.3,7.3,5.5C7.1,5.5,6.9,5.5,6.7,5.4c-0.1,0-0.2-0.1-0.2-0.1C6,5.2,5.5,5,5.1,4.8
	c0,0,0,0,0,0C6.2,3.7,7.5,2.9,9,2.4z M4.3,5.6c0.1,0,0.2,0.1,0.2,0.1c0.1,0.1,0.2,0.1,0.4,0.2C5.1,6,5.2,6,5.4,6.1
	c0.1,0.1,0.3,0.1,0.4,0.2c0.2,0.1,0.3,0.1,0.5,0.2c0.1,0,0.3,0.1,0.4,0.1c0.1,0,0.1,0,0.2,0.1c-0.4,1.5-0.7,3.3-0.7,5.2H2
	C2.1,9.5,2.9,7.3,4.3,5.6z M4.5,18.3c-0.1,0-0.2,0.1-0.2,0.1C3,16.8,2.2,14.9,2,12.8h4.2c0.1,1.7,0.3,3.2,0.7,4.6
	c-0.1,0-0.1,0-0.2,0.1c-0.1,0-0.3,0.1-0.4,0.1c-0.2,0.1-0.4,0.1-0.5,0.2c-0.1,0-0.3,0.1-0.4,0.1C5.2,18,5.1,18,4.9,18.1
	C4.8,18.2,4.7,18.2,4.5,18.3z M5,19.2C5.1,19.2,5.1,19.2,5,19.2C5.5,19,6,18.8,6.4,18.7c0.1,0,0.2-0.1,0.2-0.1
	c0.2-0.1,0.4-0.1,0.6-0.1c0.5,1.3,1.1,2.4,1.8,3.2C7.5,21.1,6.2,20.3,5,19.2z M11.5,22c-1.3-0.3-2.4-1.7-3.2-3.8c0,0,0.1,0,0.1,0
	c0.5-0.1,1.1-0.2,1.6-0.2c0.1,0,0.1,0,0.2,0c0.4,0,0.8,0,1.2-0.1V22z M11.5,16.8c-0.2,0-0.4,0-0.6,0c-0.1,0-0.2,0-0.3,0
	c-0.3,0-0.5,0-0.8,0.1c-0.1,0-0.3,0-0.4,0.1C9.2,17,8.9,17,8.7,17c-0.1,0-0.3,0-0.4,0.1c-0.1,0-0.2,0-0.4,0.1
	c-0.4-1.3-0.6-2.8-0.7-4.3h4.2V16.8z M11.5,11.8H7.3C7.3,10,7.5,8.3,8,6.8c0.1,0,0.2,0,0.3,0.1c0.1,0,0.3,0.1,0.4,0.1
	C8.9,7,9.2,7,9.4,7.1c0.1,0,0.3,0,0.4,0.1c0.2,0,0.5,0,0.7,0.1c0.1,0,0.2,0,0.4,0c0.2,0,0.4,0,0.6,0V11.8z M11.5,6.1
	c-0.4,0-0.8,0-1.2-0.1c-0.1,0-0.1,0-0.2,0C9.5,6,8.9,5.9,8.4,5.8c0,0-0.1,0-0.1,0c0.8-2.1,1.9-3.5,3.2-3.8V6.1z M19.5,5.7
	c0.1,0,0.2-0.1,0.2-0.1c1.4,1.7,2.2,3.9,2.3,6.2h-4.2c0-1.9-0.3-3.6-0.7-5.2c0.1,0,0.1,0,0.2-0.1c0.1,0,0.3-0.1,0.4-0.1
	c0.2-0.1,0.3-0.1,0.5-0.2c0.1,0,0.3-0.1,0.4-0.2C18.8,6,18.9,6,19.1,5.9C19.2,5.8,19.4,5.8,19.5,5.7z M19,4.8
	C18.9,4.8,18.9,4.8,19,4.8C18.5,5,18,5.2,17.6,5.3c-0.1,0-0.2,0.1-0.2,0.1c-0.2,0.1-0.4,0.1-0.6,0.1c-0.5-1.3-1.1-2.4-1.8-3.2
	C16.5,2.9,17.8,3.7,19,4.8z M12.5,2c1.3,0.3,2.4,1.7,3.2,3.8c0,0-0.1,0-0.1,0C15.1,5.9,14.5,6,14,6.1c-0.1,0-0.1,0-0.2,0
	c-0.4,0-0.8,0-1.2,0.1V2z M12.5,7.2c0.2,0,0.4,0,0.6,0c0.1,0,0.2,0,0.4,0c0.2,0,0.5,0,0.7-0.1c0.1,0,0.3,0,0.4-0.1
	C14.8,7,15.1,7,15.3,7c0.1,0,0.3-0.1,0.4-0.1c0.1,0,0.2,0,0.3-0.1c0.4,1.5,0.7,3.1,0.7,4.9h-4.2V7.2z M12.5,12.8h4.2
	c-0.1,1.6-0.3,3-0.7,4.3c-0.1,0-0.2,0-0.4-0.1c-0.1,0-0.3-0.1-0.4-0.1c-0.2,0-0.4-0.1-0.7-0.1c-0.1,0-0.3,0-0.4-0.1
	c-0.2,0-0.5,0-0.8-0.1c-0.1,0-0.2,0-0.3,0c-0.2,0-0.4,0-0.6,0V12.8z M12.5,22v-4.1c0.4,0,0.8,0,1.2,0.1c0.1,0,0.1,0,0.2,0
	c0.5,0.1,1.1,0.1,1.6,0.2c0,0,0.1,0,0.1,0C14.9,20.3,13.8,21.7,12.5,22z M15,21.6c0.7-0.8,1.3-1.9,1.8-3.2c0.2,0.1,0.4,0.1,0.6,0.1
	c0.1,0,0.2,0.1,0.2,0.1c0.5,0.2,0.9,0.3,1.3,0.5c0,0,0,0,0,0C17.8,20.3,16.5,21.1,15,21.6z M19.5,18.3c-0.1-0.1-0.2-0.1-0.4-0.2
	c-0.2-0.1-0.3-0.1-0.5-0.2c-0.1,0-0.2-0.1-0.4-0.1c-0.2-0.1-0.4-0.1-0.5-0.2c-0.1,0-0.3-0.1-0.4-0.1c-0.1,0-0.1,0-0.2-0.1
	c0.4-1.4,0.6-2.9,0.7-4.6H22c-0.2,2-1,4-2.3,5.6C19.6,18.4,19.5,18.3,19.5,18.3z"/>
</svg>
